<?xml version="1.0" encoding="UTF-8"?>
<svg height="95px" version="1.1" viewBox="0 0 124 95"
    width="124px" xmlns="http://www.w3.org/2000/svg">
    <title>svg/error_network</title>
    <g fill="none" fill-rule="evenodd" id="Symbols" opacity="0.249441964" stroke="none"
        stroke-width="1">
        <g fill="#909299" id="img-/-cloud">
            <path
                d="M109.376267,31.463587 C108.0784,20.6707609 98.8486667,12.3913043 87.8333333,12.3913043 C84.1836,12.3913043 80.6454667,13.2917391 77.4814,15.0120652 C71.5955333,5.7 61.4936667,0 50.6333333,0 C36.4994,0 24.0787333,9.5475 19.9908667,23.3803261 C8.32866667,26.0630435 0,36.4386957 0,48.5326087 C0,59.9945652 7.72313333,70.1492391 18.6,73.321413 C18.6041333,82.9969565 26.4822667,90.8695652 36.1666667,90.8695652 C41.1018667,90.8695652 45.7312,88.8208696 49.0275333,85.2769565 C53.9069333,91.4127174 61.2704667,95 69.2333333,95 C79.3207333,95 88.5318667,89.0294565 92.7106667,79.9672826 C94.4962667,80.3493478 96.3211333,80.5434783 98.1666667,80.5434783 C112.4122,80.5434783 124,68.9638043 124,54.7282609 C124,44.7553261 118.300133,35.7551087 109.376267,31.463587 Z M115.718867,67.4272826 L115.231133,64.1332609 L113.1872,64.4347826 C111.852133,64.6330435 110.543933,64.7548913 109.301867,64.8003261 L107.237267,64.8726087 L107.384,69.0009783 L109.450667,68.9266304 C110.8436,68.8791304 112.302667,68.7407609 113.792733,68.5218478 L115.036867,68.3380435 C111.0544,73.2573913 104.976333,76.4130435 98.1666667,76.4130435 C96.0896667,76.4130435 94.0395333,76.1197826 92.0741333,75.5456522 C91.0325333,75.24 89.9392667,75.791413 89.5569333,76.8013043 C86.3990667,85.2170652 78.2316,90.8695652 69.2333333,90.8695652 C61.7334,90.8695652 54.8658667,87.0798913 50.8606667,80.7334783 C50.4866,80.1407609 49.8356,79.7772826 49.1329333,79.7690217 C49.1267333,79.7690217 49.1184667,79.7690217 49.1122667,79.7690217 C48.4178667,79.7690217 47.771,80.1180435 47.3866,80.6963043 C44.8921333,84.4797826 40.6968,86.7391304 36.1666667,86.7391304 C28.7597333,86.7391304 22.7333333,80.7169565 22.7333333,73.3152174 C22.7333333,72.8526087 22.7560667,72.3961957 22.8015333,71.9459783 C22.9069333,70.9009783 22.2125333,69.9427174 21.1854,69.7217391 C11.3046667,67.5677174 4.13333333,58.6563043 4.13333333,48.5326087 C4.13333333,38 11.6518667,29.0225 22.0079333,27.1823913 C22.8077333,27.0419565 23.4484,26.4451087 23.6488667,25.6582609 C26.8728667,12.9840217 37.9667333,4.13043478 50.6333333,4.13043478 C60.6856,4.13043478 70.0042,9.7726087 74.9518,18.8554348 C75.2308,19.3676087 75.7144,19.7393478 76.2827333,19.8756522 C76.8510667,20.0140217 77.4504,19.9025 77.934,19.5741304 C80.8542,17.5770652 84.2766,16.5217391 87.8333333,16.5217391 C97.0940667,16.5217391 104.796533,23.75 105.364867,32.9773913 C105.4124,33.7580435 105.900133,34.4457609 106.6214,34.751413 C114.666933,38.1569565 119.866667,45.998587 119.866667,54.7282609 C119.866667,59.4741304 118.316667,63.8544565 115.718867,67.4272826 Z"
                id="Shape"/>
            <rect height="4" id="Rectangle-path" width="30" x="46" y="62" />
            <circle cx="82.5" cy="48.5" id="Oval" r="4.5" />
            <path
                d="M51,48.5 L51,44 L30,44 L30,48.5 L42.6,48.5 C42.6,50.98175 44.4837,53 46.8,53 C49.1163,53 51,50.98175 51,48.5 Z"
                id="Shape"/>
            <path
                d="M90.743,54.9043001 L90.578,54.4687427 C93.312875,51.546623 95,47.6491003 95,43.3589624 C95,34.3390395 87.5976875,27 78.5,27 C69.4023125,27 62,34.3390395 62,43.3589624 C62,52.3788853 69.4023125,59.7179247 78.5,59.7179247 C81.721625,59.7179247 84.7205,58.783419 87.2635625,57.1945548 C87.63275,57.9368427 88.2845,59.0860598 89.319875,60.3927319 L90.5945,62 L93.83675,59.4725403 L92.562125,57.8652723 C91.2978125,56.2682286 90.7698125,54.9779154 90.743,54.9043001 Z M66.125,43.3589624 C66.125,36.5924866 71.6751875,31.0897406 78.5,31.0897406 C85.3248125,31.0897406 90.875,36.5924866 90.875,43.3589624 C90.875,50.1254382 85.3248125,55.6281842 78.5,55.6281842 C71.6751875,55.6281842 66.125,50.1254382 66.125,43.3589624 Z"
                id="Shape"/>
            <path
                d="M98.646237,62.9614918 L96.8373141,62 L95,65.7844148 L96.8089229,66.7459066 C98.1068049,67.4357186 99.5020279,68.0024257 100.954033,68.4269254 L102.90694,69 L104,64.9120679 L102.047093,64.3389933 C100.84858,63.9887811 99.704822,63.5260764 98.646237,62.9614918 Z"
                id="Shape"/>
        </g>
    </g>
</svg>