<?xml version="1.0" encoding="UTF-8"?>
<svg width="124px" height="95px" viewBox="0 0 124 95" version="1.1" xmlns="http://www.w3.org/2000/svg" xmlns:xlink="http://www.w3.org/1999/xlink">
    <title>img/error_other</title>
    <g id="img-/-sad" stroke="none" stroke-width="1" fill="none" fill-rule="evenodd" opacity="0.249441964">
        <g fill="#909299">
            <path d="M113.310345,74.8965517 L113.310345,39.6206897 C113.310345,17.8116552 95.5612414,0.0689655172 73.7457931,0.0689655172 L50.2542069,0.0689655172 C28.4387586,0.0689655172 10.6896552,17.8116552 10.6896552,39.6206897 L10.6896552,74.8965517 L0,74.8965517 L0,79.1724138 L12.8275862,79.1724138 L17.1034483,79.1724138 L25.762069,79.1724138 C26.3008276,83.9677931 30.3351034,87.7241379 35.2758621,87.7241379 C40.2166207,87.7241379 44.2508966,83.9677931 44.7896552,79.1724138 L79.2103448,79.1724138 C79.7469655,83.9677931 83.7833793,87.7241379 88.7241379,87.7241379 C93.6648966,87.7241379 97.6991724,83.9677931 98.237931,79.1724138 L106.896552,79.1724138 L111.172414,79.1724138 L124,79.1724138 L124,74.8965517 L113.310345,74.8965517 Z M106.896552,74.8965517 L98.3448276,74.8965517 L98.3448276,62.0689655 L94.0689655,62.0689655 L94.0689655,74.8965517 L94.0689655,78.1077241 C94.0689655,81.0516552 91.6723448,83.4482759 88.7241379,83.4482759 C85.775931,83.4482759 83.3793103,81.0516552 83.3793103,78.1077241 L83.3793103,74.8965517 L83.3793103,62.0689655 L79.1034483,62.0689655 L79.1034483,74.8965517 L44.8965517,74.8965517 L44.8965517,62.0689655 L40.6206897,62.0689655 L40.6206897,74.8965517 L40.6206897,78.1077241 C40.6206897,81.0516552 38.224069,83.4482759 35.2758621,83.4482759 C32.3276552,83.4482759 29.9310345,81.0516552 29.9310345,78.1077241 L29.9310345,74.8965517 L29.9310345,62.0689655 L25.6551724,62.0689655 L25.6551724,74.8965517 L17.1034483,74.8965517 L14.9655172,74.8965517 L14.9655172,39.6206897 C14.9655172,20.1697931 30.7947586,4.34482759 50.2542069,4.34482759 L73.7457931,4.34482759 C93.2052414,4.34482759 109.034483,20.1697931 109.034483,39.6206897 L109.034483,74.8965517 L106.896552,74.8965517 Z"
                id="Shape" />
            <path d="M51.7208276,30.5195172 C46.715931,35.5201379 38.5811034,35.5158621 33.5804828,30.5195172 C32.7445517,29.6835862 31.3933793,29.6835862 30.5574483,30.5195172 C30.1127586,30.9642069 29.9224828,31.5542759 29.9524138,32.137931 L29.9310345,32.137931 L29.9310345,42.8275862 L34.2068966,42.8275862 L34.2068966,36.3026207 C36.8173103,37.7842069 39.7313103,38.5431724 42.6495862,38.5431724 C47.0302069,38.5431724 51.4108276,36.8755862 54.7438621,33.5425517 C55.5797931,32.7066207 55.5797931,31.3554483 54.7438621,30.5195172 C53.907931,29.6835862 52.5567586,29.6857241 51.7208276,30.5195172 Z"
                id="Shape" />
            <path d="M90.2035862,30.5195172 C85.1986897,35.5201379 77.0638621,35.5158621 72.0632414,30.5195172 C71.2273103,29.6835862 69.8761379,29.6835862 69.0402069,30.5195172 C68.2042759,31.3554483 68.2042759,32.7066207 69.0402069,33.5425517 C72.3753793,36.8777241 76.7538621,38.5431724 81.1323448,38.5431724 C83.3515172,38.5431724 85.5706897,38.1113103 87.6551724,37.254 L87.6551724,40.6896552 L91.9310345,40.6896552 L91.9310345,34.7141379 C92.3778621,34.3506897 92.8118621,33.9594483 93.2266207,33.5425517 C94.0625517,32.7066207 94.0625517,31.3554483 93.2266207,30.5195172 C92.3928276,29.6835862 91.0395172,29.6857241 90.2035862,30.5195172 Z"
                id="Shape" />
            <rect id="Rectangle-path" x="29.9310345" y="47.1034483" width="4.27586207"
                height="6.4137931" />
            <rect id="Rectangle-path" x="87.6551724" y="44.9655172" width="4.27586207"
                height="10.6896552" />
        </g>
    </g>
</svg>