<?xml version="1.0" encoding="UTF-8"?>
<svg width="24px" height="24px" viewBox="0 0 24 24" version="1.1" xmlns="http://www.w3.org/2000/svg" xmlns:xlink="http://www.w3.org/1999/xlink">
    <title>svg/contact</title>
    <g id="contact" stroke="none" stroke-width="1" fill="none" fill-rule="evenodd">
        <path d="M8.81775207,4.36618257 C10.3087127,4.36618257 11.5214274,5.57753112 11.5214274,7.06667012 C11.5214274,8.56036307 10.3087127,9.77171162 8.81775207,9.77171162 C7.32679149,9.77171162 6.11362137,8.56036307 6.11362137,7.06667012 C6.11362137,5.57753112 7.32679149,4.36618257 8.81775207,4.36618257 Z M8.81775207,11.1378942 C11.0619346,11.1378942 12.88761,9.31176349 12.88761,7.06667012 C12.88761,4.82613071 11.0619346,3 8.81775207,3 C6.5735695,3 4.7474388,4.82613071 4.7474388,7.06667012 C4.7474388,9.31176349 6.5735695,11.1378942 8.81775207,11.1378942 Z M17.1323392,4.58932573 C18.2075249,4.58932573 19.0818817,5.46368257 19.0818817,6.53841286 C19.0818817,7.61314315 18.2075249,8.4875 17.1323392,8.4875 C16.0576089,8.4875 15.1832521,7.61314315 15.1832521,6.53841286 C15.1832521,5.46368257 16.0576089,4.58932573 17.1323392,4.58932573 Z M17.1323392,9.85368257 C18.9607469,9.85368257 20.4480643,8.36909751 20.4480643,6.53841286 C20.4480643,4.71228216 18.9607469,3.22314315 17.1323392,3.22314315 C15.3043869,3.22314315 13.8170695,4.71228216 13.8170695,6.53841286 C13.8170695,8.36909751 15.3043869,9.85368257 17.1323392,9.85368257 Z M21.9941276,15.8102386 L16.6350488,15.8102386 L16.6350488,15.7829149 C16.6350488,13.9294606 15.362222,11.9667116 13.0019139,11.9667116 C12.9686701,11.9667116 12.9313278,11.9667116 12.8962624,11.9667116 C13.1330674,11.7435685 13.4390923,11.5841805 13.8147925,11.5841805 C14.0739118,11.5841805 14.8726732,11.5796266 15.8504046,11.5750726 C17.3882707,11.5659647 19.3696909,11.5568568 20.3847645,11.5568568 C21.6580467,11.5568568 21.9941276,12.7044502 21.9941276,13.3101245 L21.9941276,15.8102386 Z M15.2688662,19.1938174 L2.36618257,19.1938174 L2.36618257,16.0242739 C2.36618257,15.227334 2.67994917,14.4395021 3.20547407,13.9249066 C3.47415664,13.660778 3.93000622,13.3328942 4.54843154,13.3647718 C4.89088797,13.3556639 5.97472614,13.3602178 7.2871722,13.35111 C9.24809959,13.3420021 11.7222562,13.3328942 13.0019139,13.3328942 C14.5598174,13.3328942 15.2688662,14.603444 15.2688662,15.7829149 L15.2688662,19.1938174 Z M20.3847645,10.1906743 C19.3683247,10.1906743 17.3837168,10.1997822 15.8435737,10.20889 C14.8690301,10.213444 14.073001,10.2179979 13.827999,10.2179979 C13.8111494,10.2179979 13.7942998,10.2179979 13.7779056,10.2179979 C12.7059077,10.2179979 11.7504907,10.8919813 11.2504678,11.9667116 C10.0172604,11.9712656 8.54314938,11.9803734 7.28034129,11.9849274 C5.9779139,11.9940353 4.90181743,11.9985892 4.5666473,11.9985892 C4.56528112,11.9985892 4.56391494,11.9985892 4.56254876,11.9985892 C3.70868465,11.9712656 2.89307365,12.3173651 2.24914627,12.9503631 C1.46677905,13.7154253 1,14.8675726 1,16.0242739 L1,19.8769087 C1,20.2548859 1.3055695,20.56 1.68309129,20.56 L15.9519575,20.56 C16.3294793,20.56 16.6350488,20.2548859 16.6350488,19.8769087 L16.6350488,17.1764212 L22.6772189,17.1764212 C23.0547407,17.1764212 23.3603102,16.8713071 23.3603102,16.4933299 L23.3603102,13.3101245 C23.3603102,11.7982158 22.3174575,10.1906743 20.3847645,10.1906743 Z"
            id="5F" fill="#909299" />
    </g>
</svg>