<?xml version="1.0" encoding="UTF-8"?>
<svg height="24px" version="1.1" viewBox="0 0 24 24" width="24px"
    xmlns="http://www.w3.org/2000/svg">
    <title>icon / email</title>
    <desc>Created with Sketch.</desc>
    <defs />
    <g fill="none" fill-rule="evenodd" id="icon-/-email" stroke="none" stroke-width="1">
        <path
            d="M18.7823828,16.1147343 L6.21761718,16.1147343 C6.12333882,16.1147343 6.04367187,16.0354153 6.04367187,15.940789 L6.04367187,8.52445671 L12.2142079,12.563119 C12.3011805,12.6198251 12.4003293,12.6487 12.4998261,12.6487 C12.6010622,12.6487 12.7019505,12.6194772 12.7896189,12.5610316 L18.9563281,8.44583343 L18.9563281,15.940789 C18.9563281,16.0354153 18.8766612,16.1147343 18.7823828,16.1147343 Z M17.678178,8.04367187 L12.4973908,11.5013568 L7.2150196,8.04367187 L17.678178,8.04367187 Z M19.6169724,7.33571445 C19.5533084,7.25326437 19.4698147,7.19412297 19.3769279,7.16176914 C19.2001995,7.06192453 18.9994666,7 18.7823828,7 L6.21761718,7 C5.54653617,7 5,7.54618828 5,8.21761718 L5,15.940789 C5,16.6122179 5.54653617,17.1584062 6.21761718,17.1584062 L18.7823828,17.1584062 C19.4534638,17.1584062 20,16.6122179 20,15.940789 L20,8.21761718 C20,7.87007445 19.8514507,7.55801656 19.6169724,7.33571445 Z"
            fill="#323643" id="1E" />
    </g>
</svg>