<?xml version="1.0" encoding="UTF-8"?>
<svg height="24px" version="1.1" viewBox="0 0 24 24" width="24px"
    xmlns="http://www.w3.org/2000/svg">
    <title>svg/profile</title>
    <g fill="none" fill-rule="evenodd" id="profile" stroke="none" stroke-width="1">
        <path
            d="M11.5664765,5.3222712 C13.0095152,5.3222712 14.183692,6.49909256 14.183692,7.94036816 C14.183692,9.38605134 13.0095152,10.5584651 11.5664765,10.5584651 C10.1234379,10.5584651 8.94970184,9.38605134 8.94970184,7.94036816 C8.94970184,6.49909256 10.1234379,5.3222712 11.5664765,5.3222712 Z M11.5664765,11.8807363 C13.7385274,11.8807363 15.5059632,10.1133005 15.5059632,7.94036816 C15.5059632,5.76743583 13.7385274,4 11.5664765,4 C9.39442572,4 7.62743065,5.76743583 7.62743065,7.94036816 C7.62743065,10.1133005 9.39442572,11.8807363 11.5664765,11.8807363 Z M17.8106819,19.6777288 L5.3222712,19.6777288 L5.3222712,16.6100596 C5.3222712,15.8343272 5.62595281,15.076225 6.13458647,14.5781696 C6.39463313,14.3225305 6.823049,14.0140005 7.43437905,14.0316308 C7.77155821,14.0404459 8.81615245,14.0272232 10.0864143,14.0228157 C11.9843142,14.0140005 14.3780659,14.0007778 15.6165932,14.0007778 C17.1239824,14.0007778 17.8106819,15.23049 17.8106819,16.3720508 L17.8106819,19.6777288 Z M15.6165932,12.6785066 C14.3767436,12.6785066 11.9803474,12.6917293 10.0802437,12.7005445 C8.81923775,12.704952 7.7777288,12.7093596 7.45245009,12.7093596 C7.45112782,12.7093596 7.44936479,12.7093596 7.44760176,12.7093596 C6.62867514,12.6961369 5.83178636,13.0222971 5.20855587,13.6349494 C4.45177599,14.3754213 4,15.4861291 4,16.6100596 L4,20.3388644 C4,20.7002852 4.29574799,21 4.6611356,21 L18.4718175,21 C18.8367643,21 19.1329531,20.7002852 19.1329531,20.3388644 L19.1329531,16.3720508 C19.1329531,14.5825771 17.9005963,12.6785066 15.6165932,12.6785066 Z"
            fill="#909299" id="4F"/>
    </g>
</svg>