<?xml version="1.0" encoding="UTF-8"?>
<svg height="24px" version="1.1" viewBox="0 0 24 24" width="24px"
    xmlns="http://www.w3.org/2000/svg">
    <title>icon / phone</title>
    <desc>Created with Sketch.</desc>
    <defs />
    <g fill="none" fill-rule="evenodd" id="icon-/-phone" stroke="none" stroke-width="1">
        <path
            d="M5.99566353,6.80237022 C5.98275733,6.98107141 5.99996559,7.53372139 6.46458868,8.74160906 L6.47948045,8.78462971 C7.09930884,11.011776 11.5890108,15.9227494 14.1050573,17.1273278 C15.9863837,18.0274523 17.0794393,18.199535 17.2912333,18.1432772 C17.5334727,18.047308 18.2400043,17.200132 18.5414798,16.8394204 C18.68775,16.6640285 18.8191285,16.505183 18.9237018,16.3893581 C19.0113978,16.2900797 19.0080885,16.2338219 19.0070957,16.2139662 C19.0014699,16.117997 18.9121193,16.0021722 18.8571852,15.9492237 L16.3288943,14.235016 C15.9810889,14.129119 15.7084041,14.2151603 15.6567793,14.2317067 L13.8568612,15.211254 L13.604694,15.0325528 C10.8517029,13.0900047 9.15371066,10.4392704 9.08256111,10.3267548 L8.93397438,10.0917958 L9.05641779,9.84029044 C9.08223018,9.79065122 9.68882144,8.5562893 9.98334748,8.05658783 C10.0587991,7.92752586 9.93966496,7.53372139 9.78677617,7.28221601 C9.32116029,6.56079269 8.45876159,5.30657508 8.15927163,5.05176042 C8.02458388,4.93593558 7.85514868,5.02528617 7.78962491,5.06830683 C7.03941084,5.71692596 6.17337193,6.540937 5.99566353,6.80237022 Z M17.200559,19.1393709 C16.3335273,19.1393709 14.8721487,18.5933394 13.6765054,18.0208338 C10.9410535,16.7136677 6.23823384,11.5445703 5.53004765,9.07584647 C5.109438,7.98047436 4.93371516,7.12006123 5.0224039,6.58726694 C5.04987094,6.42180288 5.10745243,6.07763762 7.15986868,4.29724429 L7.18700479,4.2773886 C7.4811999,4.05566676 8.19799022,3.77437785 8.80557427,4.29724429 C9.30031182,4.72083229 10.4105757,6.41849359 10.6279955,6.752731 C10.7007997,6.87186513 11.2660249,7.83817527 10.8381348,8.56290787 C10.6402398,8.89714528 10.2696003,9.63180572 10.0750146,10.0223009 C10.5230913,10.6676108 11.9245719,12.5572104 13.9286726,14.0397684 L15.2371624,13.3315822 C15.3056646,13.3017987 15.9307878,13.0337469 16.7177349,13.3183451 L16.8292577,13.3746029 L19.4862796,15.1781612 C19.5345951,15.2178725 19.9585141,15.5918213 19.9972326,16.141162 C20.0131172,16.3695024 19.968111,16.7103584 19.6636571,17.0512144 C19.5650405,17.1604206 19.4412734,17.3093383 19.3039382,17.4748024 C18.5894644,18.3285969 18.048066,18.9474325 17.5844357,19.0897316 C17.4762222,19.1228244 17.3468293,19.1393709 17.200559,19.1393709 Z"
            fill="#323643" id="2J" />
    </g>
</svg>