<?xml version="1.0" encoding="UTF-8"?>
<svg height="24px" version="1.1" viewBox="0 0 24 24" width="24px"
    xmlns="http://www.w3.org/2000/svg">
    <title>icon / search</title>
    <desc>Created with Sketch.</desc>
    <defs />
    <g fill="none" fill-rule="evenodd" id="icon-/-search" stroke="none" stroke-width="1">
        <path
            d="M13.5108523,15.5828481 C12.1069349,15.5828481 10.8334569,15.0195871 9.90259397,14.1048174 C9.90132345,14.1048174 9.90089995,14.1005823 9.89962943,14.1005823 C9.89751191,14.1005823 9.89454738,14.0963473 9.89242986,14.0963473 C8.94377978,13.1604023 8.35383801,11.8602435 8.35383801,10.4287983 C8.35383801,7.58284807 10.6674431,5.2705135 13.5108523,5.2705135 C16.3542615,5.2705135 18.6678666,7.58284807 18.6678666,10.4287983 C18.6678666,13.2705135 16.3542615,15.5828481 13.5108523,15.5828481 Z M13.5108523,4 C9.96696665,4 7.08332451,6.88406564 7.08332451,10.4287983 C7.08332451,11.9872949 7.64277395,13.4187401 8.5698253,14.5325569 L4.18613023,18.9158285 C3.93795659,19.1656961 3.93795659,19.5637904 4.18613023,19.813658 C4.31021705,19.9364743 4.47284277,20 4.6354685,20 C4.79809423,20 4.96029645,19.9364743 5.08438327,19.813658 L9.47570143,15.4219164 C10.5797777,16.3155109 11.9832716,16.8533616 13.5108523,16.8533616 C17.0551615,16.8533616 19.9383801,13.9692959 19.9383801,10.4287983 C19.9383801,6.88406564 17.0551615,4 13.5108523,4 Z"
            fill="#F57523" id="6F"
            transform="translate(11.969190, 12.000000) scale(-1, 1) translate(-11.969190, -12.000000) " />
    </g>
</svg>