<?xml version="1.0" encoding="UTF-8"?>
<svg width="24px" height="24px" viewBox="0 0 24 24" version="1.1" xmlns="http://www.w3.org/2000/svg" xmlns:xlink="http://www.w3.org/1999/xlink">
    <!-- Generator: Sketch 50.2 (55047) - http://www.bohemiancoding.com/sketch -->
    <title>svg/status</title>
    <desc>Created with Sketch.</desc>
    <defs></defs>
    <g id="status" stroke="none" stroke-width="1" fill="none" fill-rule="evenodd">
        <path d="M6.24902969,20.7412147 C5.70355607,20.7412147 5.25878527,20.2964439 5.25878527,19.7509703 C5.25878527,19.2054967 5.70355607,18.7607259 6.24902969,18.7607259 C6.7945033,18.7607259 7.2392741,19.2054967 7.2392741,19.7509703 C7.2392741,20.2964439 6.7945033,20.7412147 6.24902969,20.7412147 Z M6.24902969,17.5019406 C5.00702822,17.5019406 4,18.5089688 4,19.7509703 C4,20.9887758 5.00702822,22 6.24902969,22 C7.4868352,22 8.49805937,20.9887758 8.49805937,19.7509703 C8.49805937,18.5089688 7.4868352,17.5019406 6.24902969,17.5019406 Z M17.3221441,14.8920592 C14.6619113,17.552292 10.3358859,17.552292 7.67565299,14.8920592 C5.01961607,12.2360222 5.01961607,7.90999685 7.67565299,5.24976398 C9.00576943,3.91964754 10.751285,3.2566873 12.4968006,3.2566873 C14.2465121,3.2566873 15.9920277,3.91964754 17.3221441,5.24976398 C19.9781811,7.90999685 19.9781811,12.2360222 17.3221441,14.8920592 Z M18.2116857,4.36022239 C15.0605266,1.2132592 9.93727053,1.2132592 6.7861114,4.36022239 C3.63914822,7.51138152 3.63914822,12.6346376 6.7861114,15.7857967 C8.36378894,17.3592783 10.4323927,18.1439211 12.4968006,18.1439211 C14.5654044,18.1439211 16.6340082,17.3592783 18.2116857,15.7857967 C21.3586489,12.6346376 21.3586489,7.51138152 18.2116857,4.36022239 Z" id="8J" fill="#909299" transform="translate(12.285954, 12.000000) scale(-1, -1) translate(-12.285954, -12.000000) "></path>
    </g>
</svg>