<?xml version="1.0" encoding="UTF-8"?>
<svg xmlns:xlink="http://www.w3.org/1999/xlink" height="48px" version="1.1" viewBox="0 0 48 48" width="48px"
    xmlns="http://www.w3.org/2000/svg">
    <title>svg/user</title>
    <desc>Created with Sketch.</desc>
    <defs>
        <circle cx="24" cy="24" id="path-1" r="24" />
    </defs>
    <g fill="none" fill-rule="evenodd" id="Symbols" stroke="none" stroke-width="1">
        <g id="card-/-cardBase-no-image" transform="translate(-16.000000, -10.000000)">
            <g id="user" transform="translate(16.000000, 10.000000)">
                <g id="img-/-user">
                    <mask fill="white" id="mask-2">
                        <use xlink:href="#path-1" />
                    </mask>
                    <use fill="#FFFFFF" id="Mask" xlink:href="#path-1" />
                    <g fill="#909299" fill-rule="nonzero" id="delivery-man" mask="url(#mask-2)"
                        opacity="0.25">
                        <g id="Shape" transform="translate(11.389831, 11.389831)">
                            <path
                                d="M13.0169492,0 C5.82284746,0 0,5.82188136 0,13.0169492 C0,20.211 5.82188136,26.0338983 13.0169492,26.0338983 C20.2040847,26.0338983 26.0186441,20.2251356 26.0335424,13.0447627 C26.0336441,13.0420169 26.0335932,13.0392712 26.0336441,13.0365763 C26.0336441,13.0300169 26.0338983,13.0235085 26.0338983,13.0169492 C26.0338983,5.82289831 20.2120169,0 13.0169492,0 Z M13.0169492,2.03389831 C18.6641186,2.03389831 23.2137458,6.25855932 23.9062373,11.5761864 C21.5423898,10.5341695 19.6727797,8.3809322 18.4522881,6.61805085 C18.2873898,6.37983051 18.028678,6.22327119 17.7411356,6.18767797 C17.4536441,6.15223729 17.1645763,6.24081356 16.9464915,6.43159322 C15.3292373,7.84667797 12.2687797,9.801 6.873,11.0750847 C4.89310169,11.5426271 3.15925424,11.782678 2.08988136,11.8998814 C2.643,6.38908475 7.29376271,2.03389831 13.0169492,2.03389831 Z M13.0169492,24 C7.24586441,24 2.5420678,19.5656949 2.07335593,13.9483729 C3.17120339,13.8362034 5.07345763,13.5875085 7.30144068,13.0637288 C11.486339,12.0799831 14.8858475,10.602 17.4264407,8.66405085 C18.956339,10.6636271 21.1683559,12.8512373 23.973661,13.778339 C23.5897627,19.4216949 18.8967458,24 13.0169492,24 Z" />
                            <path
                                d="M17.9445906,17.8152354 C17.4696548,17.4750452 16.7980127,17.5699784 16.4446918,18.0274542 C15.8029041,18.8585198 14.4894744,19.3747934 13.0169644,19.3747934 C11.5444545,19.3747934 10.2310247,18.8585198 9.58918341,18.0274542 C9.2358625,17.57003 8.56438125,17.4749419 8.08928468,17.8152354 C7.61424171,18.1555289 7.51562058,18.8023033 7.8689415,19.2598307 C8.92306201,20.6248247 10.8475676,21.439681 13.0169644,21.439681 C15.1863613,21.439681 17.1108132,20.6247214 18.1649337,19.2598307 C18.5183083,18.8022517 18.4196335,18.1555289 17.9445906,17.8152354 Z" />
                        </g>
                    </g>
                </g>
            </g>
        </g>
    </g>
</svg>